# xmcd
#
# Track frame offsets: 
#        150
#        3613
#        10346
#        33161
#        47431
#        63106
#        67296
#        78187
#        91052
#        106373
#        114623
#        128625
#
# Disc length: 1978 seconds
#
# Revision: 1
# Processed by: cddbd v1.5.2PL0 Copyright (c) Steve Scherf et al.
# Submitted via: ExactAudioCopyFreeDBPlugin 1.0
#
DISCID=8e07b80c
DTITLE=Gary Clark Jr. - 110
DYEAR=2004
DGENRE=Blues
TTITLE0=Intro
TTITLE1=Don't Cry for Me
TTITLE2=Long-Legged Girl
TTITLE3=On the Battlefield
TTITLE4=Things are Changin'
TTITLE5=Streetwalker (Interlude)
TTITLE6=Sad Song
TTITLE7=Travis County Courthouse
TTITLE8=Numb
TTITLE9=There You Go
TTITLE10=Temptation Starin' Me in the Face
TTITLE11=Nighttime
EXTD=YEAR: 2004
EXTT0=
EXTT1=
EXTT2=
EXTT3=
EXTT4=
EXTT5=
EXTT6=
EXTT7=
EXTT8=
EXTT9=
EXTT10=
EXTT11=
PLAYORDER=
